<?xml version="1.0" standalone="no"?>
<!DOCTYPE svg PUBLIC "-//W3C//DTD SVG 20010904//EN"
 "http://www.w3.org/TR/2001/REC-SVG-20010904/DTD/svg10.dtd">
<svg version="1.0" xmlns="http://www.w3.org/2000/svg"
 width="300.000000pt" height="300.000000pt" viewBox="0 0 300.000000 300.000000"
 preserveAspectRatio="xMidYMid meet">
<metadata>
Created by potrace 1.10, written by Peter Selinger 2001-2011
</metadata>
<g transform="translate(0.000000,300.000000) scale(0.100000,-0.100000)"
fill="#000000" stroke="none">
<path d="M1383 2560 c-177 -47 -276 -103 -404 -231 -84 -83 -103 -108 -144
-192 -123 -253 -84 -527 99 -695 209 -192 579 -136 702 105 26 52 29 68 29
153 0 88 -2 99 -31 150 -20 36 -47 66 -78 88 -74 50 -77 38 -8 -29 80 -76 101
-122 102 -215 0 -59 -5 -81 -30 -131 -31 -62 -113 -149 -130 -138 -6 3 -10 2
-10 -4 0 -26 -60 -41 -168 -41 -95 0 -114 3 -158 25 -148 74 -226 207 -223
379 l2 81 7 -85 c12 -133 52 -223 135 -299 69 -63 123 -84 225 -85 99 0 169
26 238 89 133 119 127 340 -10 411 -46 24 -44 15 4 -15 53 -34 89 -97 87 -157
l-1 -39 -8 47 c-8 45 -32 93 -48 93 -4 0 -35 15 -70 32 -43 22 -57 33 -45 36
10 3 -6 5 -35 6 -29 0 -67 -5 -86 -13 -51 -21 -107 -76 -132 -131 -26 -54 -33
-46 -10 10 8 19 13 35 10 35 -3 0 -14 -21 -25 -47 -14 -34 -19 -59 -15 -85 7
-40 -7 -50 -33 -25 -24 23 18 -51 50 -88 17 -19 27 -35 21 -35 -19 0 -80 78
-97 126 -10 27 -23 55 -28 62 -5 7 -9 40 -9 74 1 47 8 76 32 124 38 77 135
170 206 198 27 10 65 24 84 32 19 7 27 13 18 14 -33 0 -150 -50 -199 -85 -59
-44 -124 -139 -145 -213 -44 -149 31 -325 167 -398 36 -20 171 -26 219 -11 21
7 20 5 -5 -10 -44 -25 -156 -23 -216 4 -95 43 -174 154 -188 267 -27 211 123
406 348 455 243 52 472 -92 557 -349 26 -79 24 -222 -5 -325 -49 -179 -165
-353 -312 -469 -42 -34 -132 -94 -200 -135 -67 -41 -138 -88 -156 -104 -34
-30 -83 -114 -83 -139 1 -7 9 3 20 23 19 36 105 121 144 141 12 6 -2 -14 -30
-44 -28 -30 -59 -68 -68 -86 -17 -33 -22 -77 -7 -68 5 3 16 -15 25 -39 28 -72
104 -111 184 -96 35 7 40 6 31 -5 -18 -22 -135 -18 -189 7 -71 32 -80 44 -81
113 -1 53 -2 57 -10 31 -9 -31 -3 -85 13 -120 7 -16 5 -16 -11 4 -12 13 -21
33 -21 44 0 20 -1 20 -13 3 -13 -17 -16 -16 -55 21 -35 33 -42 46 -42 77 0 91
74 166 254 257 236 120 369 227 465 374 89 136 127 280 115 440 -11 165 -99
297 -243 368 -62 30 -71 32 -176 32 -81 -1 -119 -5 -145 -18 l-35 -16 40 7
c22 4 83 7 135 7 80 0 103 -4 145 -25 47 -22 48 -24 23 -28 -37 -5 -35 -14 8
-37 19 -10 62 -47 94 -81 75 -81 101 -147 108 -271 4 -80 1 -104 -21 -175 -35
-109 -87 -197 -167 -278 -105 -107 -205 -168 -420 -254 -63 -25 -131 -57 -151
-71 -121 -80 -132 -219 -25 -328 39 -41 69 -58 205 -118 100 -44 225 -26 287
43 38 41 54 85 64 179 11 110 21 127 147 255 156 158 238 298 283 478 19 77
22 108 17 225 -4 115 -9 148 -32 214 -35 99 -89 181 -170 255 -58 53 -198 141
-181 113 5 -7 1 -9 -8 -5 -9 3 -13 11 -10 16 4 6 -2 7 -16 3 -12 -4 -20 -3
-17 1 3 5 -5 10 -16 10 -12 1 -58 7 -103 14 -69 11 -91 10 -160 -4 -43 -8
-107 -30 -142 -47 -123 -60 -223 -194 -237 -319 -7 -65 9 -49 19 19 23 152
176 295 354 332 228 47 474 -83 583 -308 90 -184 88 -338 -5 -598 -4 -11 6 5
22 35 23 42 31 50 34 35 10 -46 33 107 32 220 0 199 -52 338 -172 468 l-67 72
55 -46 c180 -150 249 -422 178 -704 -42 -168 -117 -292 -279 -461 -106 -110
-132 -151 -148 -237 -5 -31 -17 -70 -25 -86 -63 -122 -256 -120 -256 3 0 85
50 146 240 293 58 45 121 97 140 115 70 66 160 183 200 258 50 98 52 118 2 27
-80 -146 -199 -275 -364 -398 -189 -140 -238 -197 -238 -276 0 -65 21 -98 76
-119 40 -15 52 -16 93 -5 25 7 56 22 68 33 13 12 26 19 29 16 3 -4 -8 -16 -25
-29 -17 -12 -29 -25 -27 -28 2 -3 -28 -7 -68 -9 -61 -3 -76 0 -106 20 -84 57
-80 159 10 262 17 19 90 79 163 134 296 223 433 427 465 689 24 204 -54 389
-213 508 -233 174 -577 92 -705 -168 -79 -161 -37 -362 98 -464 55 -41 41 -43
-20 -3 -103 68 -159 180 -166 328 -4 105 16 180 68 257 66 96 196 180 319 206
137 28 329 -6 459 -83 78 -46 192 -161 235 -238 66 -120 89 -208 95 -361 4
-126 2 -144 -22 -230 -54 -189 -135 -326 -289 -486 -84 -87 -98 -106 -93 -127
14 -58 65 -38 161 66 135 146 227 303 282 483 25 83 27 103 27 260 0 159 -2
175 -28 250 -42 122 -109 228 -206 326 -73 74 -100 93 -180 132 -121 57 -182
72 -300 71 -155 -2 -296 -56 -404 -155 -71 -65 -107 -116 -143 -205 -25 -62
-28 -80 -27 -184 0 -82 5 -127 17 -159 14 -36 15 -41 2 -31 -8 7 -15 8 -15 3
0 -12 31 -42 43 -42 9 0 87 -85 87 -95 0 -10 -28 13 -82 68 -50 50 -82 96 -57
81 9 -6 10 -3 4 11 -61 146 -58 267 12 413 52 110 178 233 293 290 132 64 221
84 375 84 237 0 404 -62 602 -224 76 -63 105 -72 124 -38 9 18 6 26 -27 60
-21 22 -69 60 -106 85 -253 169 -553 232 -815 168 -63 -15 -253 -96 -253 -108
0 -2 33 11 74 29 139 65 212 80 386 80 186 0 279 -20 435 -94 98 -47 265 -161
265 -181 0 -17 -11 -11 -61 34 -105 95 -238 165 -395 208 -65 18 -107 22 -239
22 -139 1 -171 -2 -239 -22 -204 -59 -369 -191 -448 -358 l-42 -89 -1 -120 c0
-66 3 -133 7 -150 7 -28 6 -28 -9 5 -9 21 -18 75 -21 131 -4 80 -1 109 16 165
58 190 237 378 436 457 36 15 105 34 153 43 48 8 98 18 111 20 19 4 23 10 20
32 -3 25 -6 27 -58 29 -30 1 -87 -6 -127 -17z m152 0 c-3 -5 -18 -10 -33 -10
-62 0 -203 -43 -302 -92 -92 -46 -117 -64 -201 -147 -68 -69 -105 -115 -130
-163 -18 -37 -35 -65 -37 -63 -6 6 40 89 83 150 118 167 304 278 535 320 96
17 92 17 85 5z m-572 -323 c-16 -18 -39 -50 -52 -70 -12 -20 -25 -37 -27 -37
-15 0 84 139 100 140 4 0 -5 -15 -21 -33z m820 -3 c26 -14 47 -26 47 -29 0 -4
-131 54 -140 63 -11 10 47 -12 93 -34z m-971 -309 c-8 -196 37 -323 152 -433
86 -83 167 -122 275 -132 l86 -9 -85 3 c-106 4 -175 29 -255 93 -149 121 -223
329 -185 527 7 36 13 66 14 66 1 0 0 -52 -2 -115z m1297 -32 c48 -96 62 -158
66 -293 4 -124 4 -125 -5 -35 -13 133 -28 200 -64 298 -18 48 -32 87 -30 87 2
0 17 -26 33 -57z m-610 -86 c85 -56 106 -188 43 -266 -84 -104 -207 -118 -293
-32 -93 93 -66 249 52 310 58 30 143 24 198 -12z m626 -557 c-9 -28 -19 -50
-21 -48 -2 2 4 27 13 56 9 28 19 50 21 47 2 -2 -4 -27 -13 -55z m-394 -29
c-12 -16 -56 -58 -99 -93 -120 -99 -182 -137 -338 -206 -136 -61 -192 -96
-204 -126 -5 -13 -14 -27 -20 -31 -7 -4 -8 -10 -3 -14 6 -4 6 -24 0 -50 -12
-61 -29 -32 -23 41 6 82 38 106 301 219 125 54 251 137 335 222 36 36 66 66
68 66 2 1 -6 -12 -17 -28z m326 -125 c-55 -103 -135 -210 -216 -290 -93 -92
-81 -61 15 37 84 87 170 206 215 299 12 26 25 46 27 43 2 -2 -16 -42 -41 -89z"/>
<path d="M1660 2525 c0 -10 11 -15 35 -15 24 0 35 5 35 15 0 10 -11 15 -35 15
-24 0 -35 -5 -35 -15z"/>
<path d="M880 2443 c-121 -132 -191 -264 -231 -430 -27 -113 -23 -283 9 -383
83 -255 308 -420 571 -420 165 0 275 43 381 149 78 80 119 157 133 258 11 77
0 159 -28 215 -10 21 -11 28 -2 25 7 -2 22 -28 34 -58 17 -41 22 -75 23 -141
0 -105 -27 -191 -86 -269 -21 -28 -38 -56 -36 -62 2 -7 0 -9 -4 -5 -10 11 -35
-12 -27 -26 3 -6 3 -8 -2 -4 -4 4 -35 -12 -69 -36 -115 -82 -252 -126 -396
-126 -167 0 -296 53 -410 169 -89 90 -140 183 -172 313 -22 90 -36 108 -63 82
-19 -19 -13 -57 25 -166 52 -149 121 -237 254 -326 118 -79 183 -97 353 -97
156 0 149 -11 -12 -21 -158 -10 -290 30 -389 117 -26 23 -50 38 -54 34 -4 -4
13 -25 38 -46 98 -86 261 -136 404 -126 159 12 333 80 457 179 35 28 53 39 39
23 -79 -87 -268 -186 -411 -215 -154 -32 -265 -23 -393 34 -95 42 -207 166
-150 166 8 0 12 5 9 10 -11 18 -34 11 -51 -15 -15 -23 -15 -27 5 -59 30 -48
101 -111 160 -140 77 -39 155 -56 262 -56 218 0 443 101 605 273 198 208 219
495 49 676 -46 49 -105 89 -105 72 0 -6 23 -36 50 -66 64 -70 65 -92 2 -33
-56 52 -74 63 -122 72 -34 7 -33 6 16 -23 99 -58 143 -137 146 -259 1 -74 2
-75 8 -27 8 50 8 49 5 -11 -3 -65 -46 -181 -64 -170 -5 4 -13 1 -17 -5 -4 -8
-3 -9 4 -5 18 11 14 -10 -5 -25 -15 -12 -16 -12 -8 1 4 8 -8 -1 -28 -19 -39
-37 -48 -51 -19 -31 9 7 1 -2 -18 -19 -19 -17 -41 -29 -48 -26 -7 2 -11 1 -8
-3 7 -11 -62 -44 -75 -37 -5 4 -9 2 -9 -4 0 -6 -7 -8 -15 -5 -8 4 -15 2 -15
-4 0 -6 -9 -8 -20 -5 -11 3 -20 1 -20 -4 0 -5 -43 -8 -98 -8 -175 3 -292 59
-403 192 -87 104 -123 210 -123 368 0 88 4 125 23 185 41 134 100 234 202 347
59 65 69 89 47 111 -23 23 -47 11 -108 -55z m22 -27 c-68 -74 -112 -134 -159
-221 -18 -33 -33 -56 -33 -52 0 14 52 111 91 169 44 65 149 181 157 174 3 -3
-22 -35 -56 -70z m-215 -573 c-2 -21 -4 -6 -4 32 0 39 2 55 4 38 2 -18 2 -50
0 -70z m-2 -133 c35 -141 129 -281 239 -354 88 -59 187 -86 308 -86 102 1 114
3 253 54 13 5 11 2 -5 -8 -64 -39 -154 -61 -255 -61 -108 0 -162 14 -270 68
-171 85 -307 322 -304 527 l2 75 8 -75 c5 -41 16 -104 24 -140z m-130 -129 c9
-29 14 -55 12 -57 -2 -3 -12 22 -22 53 -30 95 -28 90 -16 73 6 -8 18 -39 26
-69z"/>
<path d="M1722 2339 c2 -6 43 -26 91 -44 112 -44 184 -91 276 -179 119 -116
184 -217 235 -370 14 -44 31 -85 37 -93 18 -21 47 -15 65 12 15 24 15 29 -1
73 -103 277 -325 495 -597 588 -77 26 -112 30 -106 13z m572 -398 c58 -89 106
-188 106 -219 0 -42 -23 -17 -45 49 -40 118 -99 218 -183 314 -33 37 -30 35
14 -10 33 -33 81 -93 108 -134z"/>
<path d="M627 2174 c-27 -55 -53 -131 -63 -186 -5 -30 -3 -38 8 -38 10 0 21
22 31 65 9 36 28 93 41 127 31 77 18 101 -17 32z"/>
<path d="M2370 1996 c0 -18 16 -29 30 -21 13 8 1 35 -16 35 -8 0 -14 -6 -14
-14z"/>
<path d="M2148 1965 c-3 -3 9 -36 28 -73 77 -157 111 -372 85 -550 -7 -45 -9
-87 -6 -93 29 -46 62 154 50 299 -10 116 -37 218 -90 330 -40 85 -53 101 -67
87z"/>
<path d="M536 1872 c-2 -4 -1 -14 4 -22 7 -11 12 -12 21 -3 6 6 8 16 5 22 -8
13 -23 14 -30 3z"/>
<path d="M742 1367 c5 -22 105 -105 161 -133 57 -29 152 -64 174 -64 32 0 4
24 -47 40 -81 25 -151 63 -219 120 -63 52 -75 59 -69 37z"/>
<path d="M2292 1178 c-30 -30 1 -73 36 -51 23 14 25 29 7 47 -20 19 -27 20
-43 4z"/>
<path d="M714 995 c-15 -11 -17 -17 -8 -32 15 -25 48 -23 52 3 4 31 -20 47
-44 29z"/>
<path d="M856 922 c-3 -5 -16 -7 -30 -5 -18 4 -29 -2 -41 -21 -16 -24 -16 -28
-1 -51 13 -20 24 -24 50 -22 34 2 34 3 38 50 3 46 -4 68 -16 49z m-6 -46 c0
-18 -21 -35 -36 -29 -17 6 -18 40 -1 46 17 6 37 -3 37 -17z"/>
<path d="M944 899 c-3 -6 -2 -15 4 -21 13 -13 32 -2 32 18 0 16 -26 19 -36 3z"/>
<path d="M2047 884 c-14 -15 -6 -34 14 -34 14 0 19 5 17 17 -3 18 -20 27 -31
17z"/>
<path d="M1234 839 c-27 -17 -62 -43 -77 -58 -30 -27 -67 -91 -67 -113 1 -7 9
3 20 22 21 39 96 114 154 154 54 36 31 33 -30 -5z"/>
<path d="M2167 813 c-4 -3 -7 -12 -7 -20 0 -15 26 -18 34 -4 7 11 -18 33 -27
24z"/>
<path d="M1980 757 c0 -13 70 -87 83 -87 17 0 4 28 -28 63 -36 38 -55 47 -55
24z"/>
<path d="M891 700 c-17 -10 -7 -40 14 -40 8 0 15 9 15 19 0 24 -12 32 -29 21z"/>
<path d="M1536 630 c-53 -71 -124 -80 -163 -21 -22 33 -23 33 -23 9 0 -45 32
-73 82 -72 55 1 93 26 119 76 27 53 21 55 -15 8z"/>
<path d="M1320 599 c0 -23 37 -76 46 -66 3 2 -7 24 -21 48 -22 39 -25 41 -25
18z"/>
<path d="M1780 600 c-36 -36 -19 -102 30 -111 30 -6 67 11 78 36 30 66 -56
127 -108 75z m63 -37 c9 -9 -13 -34 -24 -27 -14 8 -11 34 4 34 8 0 17 -3 20
-7z"/>
</g>
</svg>
